<mxfile host="app.diagrams.net" agent="Mozilla/5.0 (X11; Linux x86_64) AppleWebKit/537.36 (KHTML, like Gecko) Chrome/128.0.0.0 Safari/537.36" version="24.7.17">
  <diagram name="Страница — 1" id="vIH0hPLlG6JQeUh0Hnpc">
    <mxGraphModel dx="1166" dy="653" grid="1" gridSize="10" guides="1" tooltips="1" connect="1" arrows="1" fold="1" page="1" pageScale="1" pageWidth="827" pageHeight="1169" math="0" shadow="0">
      <root>
        <mxCell id="0" />
        <mxCell id="1" parent="0" />
        <mxCell id="QsQkhcBlZQ82mHcUwRK9-8" style="edgeStyle=orthogonalEdgeStyle;rounded=0;orthogonalLoop=1;jettySize=auto;html=1;exitX=0.5;exitY=0.5;exitDx=0;exitDy=0;exitPerimeter=0;endArrow=none;endFill=0;endSize=10;targetPerimeterSpacing=0;jumpSize=148;strokeWidth=2;" edge="1" parent="1" source="QsQkhcBlZQ82mHcUwRK9-9" target="QsQkhcBlZQ82mHcUwRK9-12">
          <mxGeometry relative="1" as="geometry" />
        </mxCell>
        <mxCell id="QsQkhcBlZQ82mHcUwRK9-9" value=":Patient" style="shape=umlActor;verticalLabelPosition=bottom;verticalAlign=top;horizontal=1;html=1;labelBorderColor=none;textShadow=0;comic=0;enumerate=0;treeMoving=0;" vertex="1" parent="1">
          <mxGeometry x="135" y="780" width="30" height="60" as="geometry" />
        </mxCell>
        <mxCell id="QsQkhcBlZQ82mHcUwRK9-10" style="rounded=0;orthogonalLoop=1;jettySize=auto;html=1;exitX=0.75;exitY=1;exitDx=0;exitDy=0;entryX=0.5;entryY=0;entryDx=0;entryDy=0;strokeWidth=2;endSize=10;endArrow=none;endFill=0;" edge="1" parent="1" source="QsQkhcBlZQ82mHcUwRK9-12" target="QsQkhcBlZQ82mHcUwRK9-18">
          <mxGeometry relative="1" as="geometry" />
        </mxCell>
        <mxCell id="QsQkhcBlZQ82mHcUwRK9-11" style="rounded=0;orthogonalLoop=1;jettySize=auto;html=1;exitX=0.25;exitY=1;exitDx=0;exitDy=0;strokeWidth=2;endSize=10;endArrow=none;endFill=0;entryX=1;entryY=1;entryDx=0;entryDy=0;entryPerimeter=0;edgeStyle=orthogonalEdgeStyle;" edge="1" parent="1" source="QsQkhcBlZQ82mHcUwRK9-12" target="QsQkhcBlZQ82mHcUwRK9-9">
          <mxGeometry relative="1" as="geometry">
            <mxPoint x="240" y="990" as="targetPoint" />
            <Array as="points">
              <mxPoint x="555" y="860" />
              <mxPoint x="210" y="860" />
              <mxPoint x="210" y="840" />
            </Array>
          </mxGeometry>
        </mxCell>
        <mxCell id="QsQkhcBlZQ82mHcUwRK9-12" value="&lt;div style=&quot;text-align: right;&quot;&gt;&lt;span style=&quot;white-space-collapse: preserve;&quot;&gt;Registry&lt;/span&gt;&lt;/div&gt;" style="html=1;whiteSpace=wrap;" vertex="1" parent="1">
          <mxGeometry x="525" y="780" width="120" height="60" as="geometry" />
        </mxCell>
        <mxCell id="QsQkhcBlZQ82mHcUwRK9-13" value="1: ContactReception(&lt;div&gt;complaints: String,&lt;div&gt;patient: Patient)&amp;nbsp;&lt;br&gt;&lt;div&gt;&lt;br&gt;&lt;/div&gt;&lt;/div&gt;&lt;/div&gt;" style="text;html=1;align=center;verticalAlign=middle;resizable=0;points=[];autosize=1;strokeColor=none;fillColor=none;" vertex="1" parent="1">
          <mxGeometry x="235" y="755" width="140" height="70" as="geometry" />
        </mxCell>
        <mxCell id="QsQkhcBlZQ82mHcUwRK9-14" style="edgeStyle=orthogonalEdgeStyle;rounded=0;orthogonalLoop=1;jettySize=auto;html=1;exitX=0.25;exitY=0;exitDx=0;exitDy=0;entryX=0.75;entryY=0;entryDx=0;entryDy=0;endArrow=none;endFill=0;strokeWidth=2;endSize=10;" edge="1" parent="1" source="QsQkhcBlZQ82mHcUwRK9-12" target="QsQkhcBlZQ82mHcUwRK9-12">
          <mxGeometry relative="1" as="geometry">
            <Array as="points">
              <mxPoint x="555" y="750" />
              <mxPoint x="615" y="750" />
            </Array>
          </mxGeometry>
        </mxCell>
        <mxCell id="QsQkhcBlZQ82mHcUwRK9-15" style="edgeStyle=orthogonalEdgeStyle;rounded=0;orthogonalLoop=1;jettySize=auto;html=1;entryX=1;entryY=0.75;entryDx=0;entryDy=0;strokeWidth=2;endSize=10;endArrow=none;endFill=0;exitX=1;exitY=0.25;exitDx=0;exitDy=0;" edge="1" parent="1" source="QsQkhcBlZQ82mHcUwRK9-12" target="QsQkhcBlZQ82mHcUwRK9-12">
          <mxGeometry relative="1" as="geometry">
            <mxPoint x="645" y="780" as="sourcePoint" />
            <Array as="points">
              <mxPoint x="695" y="795" />
              <mxPoint x="695" y="825" />
            </Array>
          </mxGeometry>
        </mxCell>
        <mxCell id="QsQkhcBlZQ82mHcUwRK9-16" value="1.2: CreatePatientRecord(&lt;div&gt;complaints: String,&lt;/div&gt;&lt;div&gt;patient: Patient,&lt;/div&gt;&lt;div&gt;department: String)&lt;/div&gt;" style="text;html=1;align=center;verticalAlign=middle;resizable=0;points=[];autosize=1;strokeColor=none;fillColor=none;" vertex="1" parent="1">
          <mxGeometry x="740" y="775" width="160" height="70" as="geometry" />
        </mxCell>
        <mxCell id="QsQkhcBlZQ82mHcUwRK9-17" style="edgeStyle=orthogonalEdgeStyle;rounded=0;orthogonalLoop=1;jettySize=auto;html=1;exitX=0;exitY=0.5;exitDx=0;exitDy=0;strokeWidth=2;endArrow=none;endFill=0;endSize=10;entryX=1;entryY=0.5;entryDx=0;entryDy=0;" edge="1" parent="1" source="QsQkhcBlZQ82mHcUwRK9-18" target="QsQkhcBlZQ82mHcUwRK9-21">
          <mxGeometry relative="1" as="geometry">
            <mxPoint x="285" y="1110" as="targetPoint" />
          </mxGeometry>
        </mxCell>
        <mxCell id="QsQkhcBlZQ82mHcUwRK9-18" value="Department" style="html=1;whiteSpace=wrap;" vertex="1" parent="1">
          <mxGeometry x="695" y="1080" width="120" height="60" as="geometry" />
        </mxCell>
        <mxCell id="QsQkhcBlZQ82mHcUwRK9-19" value="1.3.1: checkAvalibleDate(Department)" style="text;html=1;align=center;verticalAlign=middle;resizable=0;points=[];autosize=1;strokeColor=none;fillColor=none;rotation=60;" vertex="1" parent="1">
          <mxGeometry x="597" y="920" width="230" height="30" as="geometry" />
        </mxCell>
        <mxCell id="QsQkhcBlZQ82mHcUwRK9-20" value="1.3.2 date = getDoctorsTimes(TimeSheet)" style="text;html=1;align=center;verticalAlign=middle;resizable=0;points=[];autosize=1;strokeColor=none;fillColor=none;rotation=0;" vertex="1" parent="1">
          <mxGeometry x="430" y="1080" width="250" height="30" as="geometry" />
        </mxCell>
        <mxCell id="QsQkhcBlZQ82mHcUwRK9-21" value="MedicalWorker" style="html=1;whiteSpace=wrap;" vertex="1" parent="1">
          <mxGeometry x="230" y="1080" width="120" height="60" as="geometry" />
        </mxCell>
        <mxCell id="QsQkhcBlZQ82mHcUwRK9-22" value="[patientApprove = true]&lt;div&gt;1.3: choosed_date=date&lt;/div&gt;" style="text;html=1;align=center;verticalAlign=middle;resizable=0;points=[];autosize=1;strokeColor=none;fillColor=none;" vertex="1" parent="1">
          <mxGeometry x="495" y="870" width="150" height="40" as="geometry" />
        </mxCell>
        <mxCell id="QsQkhcBlZQ82mHcUwRK9-24" value="1.4 CreateAppointmentTicket(&lt;div&gt;choosed_date: String,&lt;/div&gt;&lt;div&gt;complaints: String)&lt;/div&gt;" style="text;html=1;align=center;verticalAlign=middle;resizable=0;points=[];autosize=1;strokeColor=none;fillColor=none;rotation=0;" vertex="1" parent="1">
          <mxGeometry x="245" y="860" width="180" height="60" as="geometry" />
        </mxCell>
        <mxCell id="QsQkhcBlZQ82mHcUwRK9-25" value="1.1 department=ChooseDepartment(complaints)" style="text;html=1;align=center;verticalAlign=middle;resizable=0;points=[];autosize=1;strokeColor=none;fillColor=none;" vertex="1" parent="1">
          <mxGeometry x="445" y="690" width="280" height="30" as="geometry" />
        </mxCell>
        <mxCell id="QsQkhcBlZQ82mHcUwRK9-26" value="" style="endArrow=open;endFill=1;endSize=12;html=1;rounded=0;strokeWidth=2;" edge="1" parent="1">
          <mxGeometry width="160" relative="1" as="geometry">
            <mxPoint x="450" y="790" as="sourcePoint" />
            <mxPoint x="495" y="789.66" as="targetPoint" />
          </mxGeometry>
        </mxCell>
        <mxCell id="QsQkhcBlZQ82mHcUwRK9-27" value="" style="endArrow=open;endFill=1;endSize=12;html=1;rounded=0;strokeWidth=2;" edge="1" parent="1">
          <mxGeometry width="160" relative="1" as="geometry">
            <mxPoint x="560" y="730" as="sourcePoint" />
            <mxPoint x="610" y="730" as="targetPoint" />
          </mxGeometry>
        </mxCell>
        <mxCell id="QsQkhcBlZQ82mHcUwRK9-28" value="" style="endArrow=open;endFill=1;endSize=12;html=1;rounded=0;strokeWidth=2;" edge="1" parent="1">
          <mxGeometry width="160" relative="1" as="geometry">
            <mxPoint x="710" y="790" as="sourcePoint" />
            <mxPoint x="710" y="830" as="targetPoint" />
          </mxGeometry>
        </mxCell>
        <mxCell id="QsQkhcBlZQ82mHcUwRK9-29" value="" style="endArrow=open;endFill=1;endSize=12;html=1;rounded=0;strokeWidth=2;" edge="1" parent="1">
          <mxGeometry width="160" relative="1" as="geometry">
            <mxPoint x="740" y="1020" as="sourcePoint" />
            <mxPoint x="770" y="1070" as="targetPoint" />
          </mxGeometry>
        </mxCell>
        <mxCell id="QsQkhcBlZQ82mHcUwRK9-30" value="" style="endArrow=open;endFill=1;endSize=12;html=1;rounded=0;strokeWidth=2;" edge="1" parent="1">
          <mxGeometry width="160" relative="1" as="geometry">
            <mxPoint x="410" y="1095" as="sourcePoint" />
            <mxPoint x="364" y="1094.58" as="targetPoint" />
            <Array as="points">
              <mxPoint x="394" y="1094.58" />
            </Array>
          </mxGeometry>
        </mxCell>
        <mxCell id="QsQkhcBlZQ82mHcUwRK9-31" value="" style="endArrow=open;endFill=1;endSize=12;html=1;rounded=0;strokeWidth=2;" edge="1" parent="1">
          <mxGeometry width="160" relative="1" as="geometry">
            <mxPoint x="260" y="840" as="sourcePoint" />
            <mxPoint x="220" y="840" as="targetPoint" />
          </mxGeometry>
        </mxCell>
        <mxCell id="QsQkhcBlZQ82mHcUwRK9-32" value="&lt;div style=&quot;text-align: left;&quot;&gt;&lt;span style=&quot;background-color: initial; white-space: pre;&quot;&gt;&#x9;&lt;/span&gt;&lt;span style=&quot;background-color: initial;&quot;&gt;sd Patient.MakeAppointment(&lt;/span&gt;&lt;span style=&quot;background-color: initial; white-space: pre;&quot;&gt;&#x9;&lt;/span&gt;&lt;span style=&quot;background-color: initial;&quot;&gt;сomplaints: String,&lt;/span&gt;&lt;/div&gt;&lt;div style=&quot;text-align: left;&quot;&gt;&lt;span style=&quot;background-color: initial;&quot;&gt;&lt;span style=&quot;white-space: pre;&quot;&gt;&#x9;&lt;/span&gt;&lt;span style=&quot;white-space: pre;&quot;&gt;&#x9;&lt;/span&gt;&lt;span style=&quot;white-space: pre;&quot;&gt;&#x9;&lt;/span&gt;&lt;span style=&quot;white-space: pre;&quot;&gt;&#x9;&lt;/span&gt;&lt;span style=&quot;white-space: pre;&quot;&gt;&#x9;&lt;/span&gt;&lt;span style=&quot;white-space: pre;&quot;&gt;&#x9;&lt;/span&gt;&lt;span style=&quot;white-space: pre;&quot;&gt;&#x9;&lt;/span&gt;patient: Patient&lt;/span&gt;&lt;span style=&quot;background-color: initial;&quot;&gt;)&lt;/span&gt;&lt;/div&gt;" style="shape=umlFrame;whiteSpace=wrap;html=1;pointerEvents=0;recursiveResize=0;container=1;collapsible=0;width=310;height=55;" vertex="1" parent="1">
          <mxGeometry x="110" y="665" width="800" height="495" as="geometry" />
        </mxCell>
      </root>
    </mxGraphModel>
  </diagram>
</mxfile>
